# xmcd CD database file
#
# Track frame offsets:
#	150
#	19950
#	41025
#	57525
#	80025
#	118800
#	141825
#	163275
#	183225
#	196800
#	229050
#	257625
#
# Disc length: 3687 seconds
#
# Revision: 2
# Processed by: cddbd v1.4b41PL1 Copyright (c) Steve Scherf et al.
# Submitted via: Feurio! 1.60 - http://www.feurio.com
#
DISCID=ae0e5c0c,ae0e650c,c60e650c
DTITLE=Eric Clapton and B.B. King - Riding with the King
DYEAR=1900
DGENRE=
TTITLE0=飘发 1
TTITLE1=飘发 2
TTITLE2=飘发 3
TTITLE3=飘发 4
TTITLE4=飘发 5
TTITLE5=飘发 6
TTITLE6=飘发 7
TTITLE7=飘发 8
TTITLE8=飘发 9
TTITLE9=飘发 10
TTITLE10=飘发 11
TTITLE11=飘发 12
EXTD=
EXTT0=
EXTT1=
EXTT2=
EXTT3=
EXTT4=
EXTT5=
EXTT6=
EXTT7=
EXTT8=
EXTT9=
EXTT10=
EXTT11=
PLAYORDER=
